<?xml version="1.0" encoding="UTF-8" standalone="no"?>
<svg
   xmlns:dc="http://purl.org/dc/elements/1.1/"
   xmlns:cc="http://creativecommons.org/ns#"
   xmlns:rdf="http://www.w3.org/1999/02/22-rdf-syntax-ns#"
   xmlns:svg="http://www.w3.org/2000/svg"
   xmlns="http://www.w3.org/2000/svg"
   xmlns:sodipodi="http://sodipodi.sourceforge.net/DTD/sodipodi-0.dtd"
   xmlns:inkscape="http://www.inkscape.org/namespaces/inkscape"
   version="1.1"
   viewBox="0 0 520 450"
   stroke-miterlimit="10"
   id="svg2"
   inkscape:version="0.48.5 r10040"
   width="100%"
   height="100%"
   sodipodi:docname="grafo2.pdf"
   style="fill:none;stroke:none">
  <metadata
     id="metadata100">
    <rdf:RDF>
      <cc:Work
         rdf:about="">
        <dc:format>image/svg+xml</dc:format>
        <dc:type
           rdf:resource="http://purl.org/dc/dcmitype/StillImage" />
        <dc:title></dc:title>
      </cc:Work>
    </rdf:RDF>
  </metadata>
  <defs
     id="defs98" />
  <sodipodi:namedview
     pagecolor="#ffffff"
     bordercolor="#666666"
     borderopacity="1"
     objecttolerance="10"
     gridtolerance="10"
     guidetolerance="10"
     inkscape:pageopacity="0"
     inkscape:pageshadow="2"
     inkscape:window-width="1280"
     inkscape:window-height="644"
     id="namedview96"
     showgrid="false"
     inkscape:zoom="0.8131728"
     inkscape:cx="160.06814"
     inkscape:cy="275.63704"
     inkscape:window-x="0"
     inkscape:window-y="25"
     inkscape:window-maximized="1"
     inkscape:current-layer="svg2" />
  <clipPath
     id="g313bd04ff_1_199.0">
    <path
       d="M 0,0 960,0 960,540 0,540 0,0 z"
       clip-rule="nonzero"
       id="path5"
       inkscape:connector-curvature="0" />
  </clipPath>
  <g
     clip-path="url(#g313bd04ff_1_199.0)"
     id="g7"
     transform="translate(-229.82609,-26.173903)">
    <path
       d="m 0,0 960,0 0,540 -960,0 z"
       id="path9"
       inkscape:connector-curvature="0"
       style="fill:#000000;fill-opacity:0;fill-rule:nonzero" />
    <g
       transform="scale(1.2,1.2)"
       id="g11">
      <clipPath
         id="g313bd04ff_1_199.1">
        <path
           d="m 0,0 800,0 0,450 -800,0 z"
           clip-rule="nonzero"
           id="path14"
           inkscape:connector-curvature="0" />
      </clipPath>
    </g>
    <path
       d="m 235.4567,169.85826 0,0 c 0,-16.68159 14.07306,-30.20471 31.43307,-30.20471 l 0,0 c 8.33655,0 16.3317,3.18226 22.22654,8.84675 5.89483,5.66448 9.20654,13.34717 9.20654,21.35796 l 0,0 c 0,16.68161 -14.07309,30.20473 -31.43307,30.20473 l 0,0 c -17.36002,0 -31.43308,-13.52312 -31.43308,-30.20473 z"
       id="path18"
       inkscape:connector-curvature="0"
       style="fill:#ffffff;fill-rule:nonzero" />
    <path
       d="m 235.4567,169.85826 0,0 c 0,-16.68159 14.07306,-30.20471 31.43307,-30.20471 l 0,0 c 8.33655,0 16.3317,3.18226 22.22654,8.84675 5.89483,5.66448 9.20654,13.34717 9.20654,21.35796 l 0,0 c 0,16.68161 -14.07309,30.20473 -31.43307,30.20473 l 0,0 c -17.36002,0 -31.43308,-13.52312 -31.43308,-30.20473 z"
       id="path20"
       inkscape:connector-curvature="0"
       style="stroke:#666666;stroke-width:2;stroke-linecap:butt;stroke-linejoin:round" />
    <path
       d="m 258.56165,181.57826 0,-22.90625 8.59375,0 q 2.625,0 4.20312,0.70312 1.59375,0.6875 2.48438,2.14063 0.90625,1.4375 0.90625,3.01562 0,1.46875 -0.79688,2.76563 -0.79687,1.29687 -2.40625,2.09375 2.07813,0.60937 3.1875,2.07812 1.125,1.46875 1.125,3.46875 0,1.60938 -0.6875,3 -0.67187,1.375 -1.67187,2.125 -1,0.75 -2.51563,1.14063 -1.5,0.375 -3.6875,0.375 l -8.73437,0 z m 3.03125,-13.28125 4.95312,0 q 2.01563,0 2.89063,-0.26563 1.15625,-0.34375 1.73437,-1.14062 0.59375,-0.79688 0.59375,-2 0,-1.14063 -0.54687,-2 -0.54688,-0.875 -1.5625,-1.1875 -1.01563,-0.32813 -3.48438,-0.32813 l -4.57812,0 0,6.92188 z m 0,10.57812 5.70312,0 q 1.46875,0 2.0625,-0.10937 1.04688,-0.1875 1.75,-0.625 0.70313,-0.4375 1.15625,-1.26563 0.45313,-0.84375 0.45313,-1.9375 0,-1.28125 -0.65625,-2.21875 -0.65625,-0.95312 -1.82813,-1.32812 -1.15625,-0.39063 -3.34375,-0.39063 l -5.29687,0 0,7.875 z"
       id="path22"
       inkscape:connector-curvature="0"
       style="fill:#000000;fill-rule:nonzero" />
    <path
       d="m 555.9029,421.28348 0,0 c 0,-27.55338 23.44336,-49.88977 52.36218,-49.88977 l 0,0 c 13.88733,0 27.20587,5.25623 37.0257,14.61237 9.81982,9.35614 15.33655,22.0458 15.33655,35.2774 l 0,0 c 0,27.55335 -23.44336,49.88974 -52.36225,49.88974 l 0,0 c -28.91882,0 -52.36218,-22.33639 -52.36218,-49.88974 z"
       id="path24"
       inkscape:connector-curvature="0"
       style="fill:#ffffff;fill-rule:nonzero" />
    <path
       d="m 555.9029,421.28348 0,0 c 0,-27.55338 23.44336,-49.88977 52.36218,-49.88977 l 0,0 c 13.88733,0 27.20587,5.25623 37.0257,14.61237 9.81982,9.35614 15.33655,22.0458 15.33655,35.2774 l 0,0 c 0,27.55335 -23.44336,49.88974 -52.36225,49.88974 l 0,0 c -28.91882,0 -52.36218,-22.33639 -52.36218,-49.88974 z"
       id="path26"
       inkscape:connector-curvature="0"
       style="stroke:#666666;stroke-width:2;stroke-linecap:butt;stroke-linejoin:round" />
    <path
       d="m 592.17914,438.36346 13.20312,-34.35938 4.90625,0 14.0625,34.35938 -5.1875,0 -4,-10.40625 -14.375,0 -3.76562,10.40625 -4.84375,0 z m 9.92187,-14.10938 11.65625,0 -3.59375,-9.51562 q -1.64062,-4.34375 -2.4375,-7.125 -0.65625,3.29687 -1.84375,6.5625 l -3.78125,10.07812 z"
       id="path28"
       inkscape:connector-curvature="0"
       style="fill:#000000;fill-rule:nonzero" />
    <path
       d="m 699.3622,251.97375 0,0 c 0,-13.67232 10.58301,-24.75591 23.63782,-24.75591 l 0,0 c 6.2691,0 12.28149,2.60821 16.71441,7.25084 4.43299,4.64263 6.92341,10.9394 6.92341,17.50507 l 0,0 c 0,13.6723 -10.58301,24.75589 -23.63782,24.75589 l 0,0 c -13.05481,0 -23.63782,-11.08359 -23.63782,-24.75589 z"
       id="path30"
       inkscape:connector-curvature="0"
       style="fill:#ffffff;fill-rule:nonzero" />
    <path
       d="m 699.3622,251.97375 0,0 c 0,-13.67232 10.58301,-24.75591 23.63782,-24.75591 l 0,0 c 6.2691,0 12.28149,2.60821 16.71441,7.25084 4.43299,4.64263 6.92341,10.9394 6.92341,17.50507 l 0,0 c 0,13.6723 -10.58301,24.75589 -23.63782,24.75589 l 0,0 c -13.05481,0 -23.63782,-11.08359 -23.63782,-24.75589 z"
       id="path32"
       inkscape:connector-curvature="0"
       style="stroke:#666666;stroke-width:2;stroke-linecap:butt;stroke-linejoin:round" />
    <path
       d="m 716.90234,260.51376 0,-17.18752 12.42187,0 0,2.03125 -10.15625,0 0,5.26563 9.5,0 0,2.01562 -9.5,0 0,5.84377 10.54688,0 0,2.03125 -12.8125,0 z"
       id="path34"
       inkscape:connector-curvature="0"
       style="fill:#000000;fill-rule:nonzero" />
    <path
       d="m 276.10498,363.66666 0,0 c 0,-20.55194 17.03433,-37.21259 38.04724,-37.21259 l 0,0 c 10.09076,0 19.76822,3.9206 26.90347,10.89933 7.13526,6.9787 11.14377,16.44388 11.14377,26.31326 l 0,0 c 0,20.55197 -17.03433,37.21262 -38.04724,37.21262 l 0,0 c -21.01291,0 -38.04724,-16.66065 -38.04724,-37.21262 z"
       id="path36"
       inkscape:connector-curvature="0"
       style="fill:#ffffff;fill-rule:nonzero" />
    <path
       d="m 276.10498,363.66666 0,0 c 0,-20.55194 17.03433,-37.21259 38.04724,-37.21259 l 0,0 c 10.09076,0 19.76822,3.9206 26.90347,10.89933 7.13526,6.9787 11.14377,16.44388 11.14377,26.31326 l 0,0 c 0,20.55197 -17.03433,37.21262 -38.04724,37.21262 l 0,0 c -21.01291,0 -38.04724,-16.66065 -38.04724,-37.21262 z"
       id="path38"
       inkscape:connector-curvature="0"
       style="stroke:#666666;stroke-width:2;stroke-linecap:butt;stroke-linejoin:round" />
    <path
       d="m 323.2245,368.0198 3.79687,0.96875 q -1.20312,4.65625 -4.29687,7.10937 -3.09375,2.45313 -7.5625,2.45313 -4.625,0 -7.53125,-1.875 -2.90625,-1.89063 -4.42188,-5.46875 -1.5,-3.57813 -1.5,-7.67188 0,-4.46875 1.70313,-7.79687 1.70312,-3.34375 4.85937,-5.0625 3.15625,-1.73438 6.95313,-1.73438 4.29687,0 7.21875,2.1875 2.9375,2.1875 4.07812,6.15625 l -3.71875,0.875 q -1,-3.125 -2.90625,-4.54687 -1.89062,-1.42188 -4.75,-1.42188 -3.3125,0 -5.53125,1.57813 -2.20312,1.57812 -3.10937,4.25 -0.89063,2.65625 -0.89063,5.5 0,3.64062 1.0625,6.375 1.0625,2.71875 3.29688,4.07812 2.25,1.34375 4.875,1.34375 3.1875,0 5.39062,-1.82812 2.20313,-1.84375 2.98438,-5.46875 z"
       id="path40"
       inkscape:connector-curvature="0"
       style="fill:#000000;fill-rule:nonzero" />
    <path
       d="m 476.2756,94.74278 0,0 c 0,-35.076607 29.60559,-63.51181 66.12595,-63.51181 l 0,0 c 17.53772,0 34.35711,6.691404 46.75818,18.602179 12.401,11.910774 19.36786,28.06525 19.36786,44.909634 l 0,0 c 0,35.076597 -29.60566,63.511807 -66.12604,63.511807 l 0,0 c -36.52036,0 -66.12595,-28.43521 -66.12595,-63.511807 z"
       id="path42"
       inkscape:connector-curvature="0"
       style="fill:#ffffff;fill-rule:nonzero" />
    <path
       d="m 476.2756,94.74278 0,0 c 0,-35.076607 29.60559,-63.51181 66.12595,-63.51181 l 0,0 c 17.53772,0 34.35711,6.691404 46.75818,18.602179 12.401,11.910774 19.36786,28.06525 19.36786,44.909634 l 0,0 c 0,35.076597 -29.60566,63.511807 -66.12604,63.511807 l 0,0 c -36.52036,0 -66.12595,-28.43521 -66.12595,-63.511807 z"
       id="path44"
       inkscape:connector-curvature="0"
       style="stroke:#666666;stroke-width:2;stroke-linecap:butt;stroke-linejoin:round" />
    <path
       d="m 524.2297,117.68278 0,-45.812495 15.78125,0 q 5.34375,0 8.15625,0.65625 3.9375,0.90625 6.71875,3.28125 3.625,3.0625 5.42187,7.828125 1.79688,4.765625 1.79688,10.890625 0,5.21875 -1.21875,9.249995 -1.21875,4.03125 -3.125,6.67188 -1.90625,2.64062 -4.17188,4.15625 -2.26562,1.51562 -5.46875,2.29687 -3.20312,0.78125 -7.35937,0.78125 l -16.53125,0 z m 6.0625,-5.40625 9.78125,0 q 4.53125,0 7.10937,-0.84375 2.57813,-0.84375 4.10938,-2.375 2.15625,-2.15625 3.35937,-5.79687 1.20313,-3.640625 1.20313,-8.828125 0,-7.1875 -2.35938,-11.046875 -2.35937,-3.859375 -5.73437,-5.171875 -2.4375,-0.9375 -7.84375,-0.9375 l -9.625,0 0,34.999995 z"
       id="path46"
       inkscape:connector-curvature="0"
       style="fill:#000000;fill-rule:nonzero" />
    <path
       d="M 266.88977,200.06299 314.16534,326.4567"
       id="path48"
       inkscape:connector-curvature="0"
       style="fill:#000000;fill-opacity:0;fill-rule:nonzero" />
    <path
       d="M 266.88977,200.06299 314.16534,326.4567"
       id="path50"
       inkscape:connector-curvature="0"
       style="stroke:#666666;stroke-width:2;stroke-linecap:butt;stroke-linejoin:round" />
    <path
       d="M 289.1163,148.5003 476.2659,94.736514"
       id="path52"
       inkscape:connector-curvature="0"
       style="fill:#000000;fill-opacity:0;fill-rule:nonzero" />
    <path
       d="M 289.1163,148.5003 476.2659,94.736514"
       id="path54"
       inkscape:connector-curvature="0"
       style="stroke:#666666;stroke-width:2;stroke-linecap:butt;stroke-linejoin:round" />
    <path
       d="M 495.64343,139.6524 341.06076,337.3532"
       id="path56"
       inkscape:connector-curvature="0"
       style="fill:#000000;fill-opacity:0;fill-rule:nonzero" />
    <path
       d="M 495.64343,139.6524 341.06076,337.3532"
       id="path58"
       inkscape:connector-curvature="0"
       style="stroke:#666666;stroke-width:2;stroke-linecap:butt;stroke-linejoin:round" />
    <path
       d="m 589.1597,139.6524 117.13385,94.80316"
       id="path60"
       inkscape:connector-curvature="0"
       style="fill:#000000;fill-opacity:0;fill-rule:nonzero" />
    <path
       d="m 589.1597,139.6524 117.13385,94.80316"
       id="path62"
       inkscape:connector-curvature="0"
       style="stroke:#666666;stroke-width:2;stroke-linecap:butt;stroke-linejoin:round" />
    <path
       d="m 542.40155,158.2546 65.85828,213.13387"
       id="path64"
       inkscape:connector-curvature="0"
       style="fill:#000000;fill-opacity:0;fill-rule:nonzero" />
    <path
       d="m 542.40155,158.2546 65.85828,213.13387"
       id="path66"
       inkscape:connector-curvature="0"
       style="stroke:#666666;stroke-width:2;stroke-linecap:butt;stroke-linejoin:round" />
    <path
       d="m 352.19946,363.66666 203.71655,57.60632"
       id="path68"
       inkscape:connector-curvature="0"
       style="fill:#000000;fill-opacity:0;fill-rule:nonzero" />
    <path
       d="m 352.19946,363.66666 203.71655,57.60632"
       id="path70"
       inkscape:connector-curvature="0"
       style="stroke:#666666;stroke-width:2;stroke-linecap:butt;stroke-linejoin:round" />
    <path
       d="m 336.47244,124.67716 62.86615,0 0,40.53544 -62.86615,0 z"
       id="path72"
       inkscape:connector-curvature="0"
       style="fill:#000000;fill-opacity:0;fill-rule:nonzero" />
    <path
       d="m 352.55057,151.59717 -1.67188,0 0,-10.64063 q -0.59375,0.57813 -1.57812,1.15625 -0.98438,0.5625 -1.76563,0.85938 l 0,-1.625 q 1.40625,-0.65625 2.45313,-1.59375 1.04687,-0.9375 1.48437,-1.8125 l 1.07813,0 0,13.65625 z m 4.98508,0 0,-1.90625 1.90625,0 0,1.90625 q 0,1.04687 -0.375,1.6875 -0.375,0.65625 -1.17188,1 l -0.46875,-0.71875 q 0.53125,-0.21875 0.78125,-0.67188 0.25,-0.45312 0.28125,-1.29687 l -0.95312,0 z m 13.05832,-1.60938 0,1.60938 -8.98438,0 q -0.0156,-0.60938 0.1875,-1.15625 0.34375,-0.92188 1.09375,-1.8125 0.76563,-0.89063 2.1875,-2.0625 2.21875,-1.8125 3,-2.875 0.78125,-1.0625 0.78125,-2.01563 0,-0.98437 -0.71875,-1.67187 -0.70312,-0.6875 -1.84375,-0.6875 -1.20312,0 -1.9375,0.73437 -0.71875,0.71875 -0.71875,2 l -1.71875,-0.17187 q 0.17188,-1.92188 1.32813,-2.92188 1.15625,-1.01562 3.09375,-1.01562 1.95312,0 3.09375,1.09375 1.14062,1.07812 1.14062,2.6875 0,0.8125 -0.34375,1.60937 -0.32812,0.78125 -1.10937,1.65625 -0.76563,0.85938 -2.5625,2.39063 -1.5,1.26562 -1.9375,1.71875 -0.42188,0.4375 -0.70313,0.89062 l 6.67188,0 z m 1.61007,-1.98437 1.67188,-0.21875 q 0.28125,1.42187 0.96875,2.04687 0.70312,0.625 1.6875,0.625 1.1875,0 2,-0.8125 0.8125,-0.82812 0.8125,-2.03125 0,-1.14062 -0.76563,-1.89062 -0.75,-0.75 -1.90625,-0.75 -0.46875,0 -1.17187,0.1875 l 0.1875,-1.46875 q 0.15625,0.0156 0.26562,0.0156 1.0625,0 1.90625,-0.54687 0.85938,-0.5625 0.85938,-1.71875 0,-0.92188 -0.625,-1.51563 -0.60938,-0.60937 -1.59375,-0.60937 -0.96875,0 -1.625,0.60937 -0.64063,0.60938 -0.82813,1.84375 l -1.67187,-0.29687 q 0.29687,-1.6875 1.375,-2.60938 1.09375,-0.92187 2.71875,-0.92187 1.10937,0 2.04687,0.48437 0.9375,0.46875 1.42188,1.29688 0.5,0.82812 0.5,1.75 0,0.89062 -0.46875,1.60937 -0.46875,0.71875 -1.40625,1.15625 1.21875,0.26563 1.875,1.15625 0.67187,0.875 0.67187,2.1875 0,1.78125 -1.29687,3.01563 -1.29688,1.23437 -3.28125,1.23437 -1.79688,0 -2.98438,-1.0625 -1.17187,-1.0625 -1.34375,-2.76562 z"
       id="path74"
       inkscape:connector-curvature="0"
       style="fill:#000000;fill-rule:nonzero" />
    <path
       d="m 238.08398,249.73228 62.86615,0 0,40.53545 -62.86615,0 z"
       id="path76"
       inkscape:connector-curvature="0"
       style="fill:#000000;fill-opacity:0;fill-rule:nonzero" />
    <path
       d="m 247.86523,269.94916 q 0,-2.42188 0.5,-3.89063 0.5,-1.46875 1.46875,-2.26562 0.98437,-0.79688 2.46875,-0.79688 1.09375,0 1.92187,0.4375 0.82813,0.4375 1.35938,1.28125 0.54687,0.82813 0.84375,2.01563 0.3125,1.1875 0.3125,3.21875 0,2.39062 -0.5,3.85937 -0.48438,1.46875 -1.46875,2.28125 -0.96875,0.79688 -2.46875,0.79688 -1.96875,0 -3.07813,-1.40625 -1.35937,-1.70313 -1.35937,-5.53125 z m 1.71875,0 q 0,3.34375 0.78125,4.45312 0.79687,1.10938 1.9375,1.10938 1.15625,0 1.9375,-1.10938 0.78125,-1.125 0.78125,-4.45312 0,-3.35938 -0.78125,-4.46875 -0.78125,-1.10938 -1.95313,-1.10938 -1.15625,0 -1.82812,0.98438 -0.875,1.23437 -0.875,4.59375 z m 9.56323,6.70312 0,-1.90625 1.90625,0 0,1.90625 q 0,1.04688 -0.375,1.6875 -0.375,0.65625 -1.17187,1 l -0.46875,-0.71875 q 0.53125,-0.21875 0.78125,-0.67187 0.25,-0.45313 0.28125,-1.29688 l -0.95313,0 z m 13.05829,-1.60937 0,1.60937 -8.98437,0 q -0.0156,-0.60937 0.1875,-1.15625 0.34375,-0.92187 1.09375,-1.8125 0.76562,-0.89062 2.1875,-2.0625 2.21875,-1.8125 3,-2.875 0.78125,-1.0625 0.78125,-2.01562 0,-0.98438 -0.71875,-1.67188 -0.70313,-0.6875 -1.84375,-0.6875 -1.20313,0 -1.9375,0.73438 -0.71875,0.71875 -0.71875,2 l -1.71875,-0.17188 q 0.17187,-1.92187 1.32812,-2.92187 1.15625,-1.01563 3.09375,-1.01563 1.95313,0 3.09375,1.09375 1.14063,1.07813 1.14063,2.6875 0,0.8125 -0.34375,1.60938 -0.32813,0.78125 -1.10938,1.65625 -0.76562,0.85937 -2.5625,2.39062 -1.5,1.26563 -1.9375,1.71875 -0.42187,0.4375 -0.70312,0.89063 l 6.67187,0 z m 1.71948,-10.20313 0,-1.60937 8.79688,0 0,1.29687 q -1.29688,1.375 -2.57813,3.67188 -1.26562,2.29687 -1.96875,4.71875 -0.5,1.70312 -0.64062,3.73437 l -1.71875,0 q 0.0312,-1.60937 0.625,-3.875 0.60937,-2.28125 1.73437,-4.39062 1.14063,-2.10938 2.40625,-3.54688 l -6.65625,0 z"
       id="path78"
       inkscape:connector-curvature="0"
       style="fill:#000000;fill-rule:nonzero" />
    <path
       d="m 363.5118,209.19685 62.86615,0 0,40.53543 -62.86615,0 z"
       id="path80"
       inkscape:connector-curvature="0"
       style="fill:#000000;fill-opacity:0;fill-rule:nonzero" />
    <path
       d="m 379.58994,236.11685 -1.67187,0 0,-10.64063 q -0.59375,0.57813 -1.57813,1.15625 -0.98437,0.5625 -1.76562,0.85938 l 0,-1.625 q 1.40625,-0.65625 2.45312,-1.59375 1.04688,-0.9375 1.48438,-1.8125 l 1.07812,0 0,13.65625 z m 4.98511,0 0,-1.90625 1.90625,0 0,1.90625 q 0,1.04687 -0.375,1.6875 -0.375,0.65625 -1.17188,1 l -0.46875,-0.71875 q 0.53125,-0.21875 0.78125,-0.67188 0.25,-0.45312 0.28125,-1.29687 l -0.95312,0 z m 4.27704,-6.70313 q 0,-2.42187 0.5,-3.89062 0.5,-1.46875 1.46875,-2.26563 0.98437,-0.79687 2.46875,-0.79687 1.09375,0 1.92187,0.4375 0.82813,0.4375 1.35938,1.28125 0.54687,0.82812 0.84375,2.01562 0.3125,1.1875 0.3125,3.21875 0,2.39063 -0.5,3.85938 -0.48438,1.46875 -1.46875,2.28125 -0.96875,0.79687 -2.46875,0.79687 -1.96875,0 -3.07813,-1.40625 -1.35937,-1.70312 -1.35937,-5.53125 z m 1.71875,0 q 0,3.34375 0.78125,4.45313 0.79687,1.10937 1.9375,1.10937 1.15625,0 1.9375,-1.10937 0.78125,-1.125 0.78125,-4.45313 0,-3.35937 -0.78125,-4.46875 -0.78125,-1.10937 -1.95313,-1.10937 -1.15625,0 -1.82812,0.98437 -0.875,1.23438 -0.875,4.59375 z m 14.01635,6.70313 0,-3.25 -5.90625,0 0,-1.53125 6.21875,-8.8125 1.35938,0 0,8.8125 1.84375,0 0,1.53125 -1.84375,0 0,3.25 -1.67188,0 z m 0,-4.78125 0,-6.14063 -4.25,6.14063 4.25,0 z"
       id="path82"
       inkscape:connector-curvature="0"
       style="fill:#000000;fill-rule:nonzero" />
    <path
       d="m 406.80316,388.5118 62.86612,0 0,40.53543 -62.86612,0 z"
       id="path84"
       inkscape:connector-curvature="0"
       style="fill:#000000;fill-opacity:0;fill-rule:nonzero" />
    <path
       d="m 416.5844,408.7287 q 0,-2.42188 0.5,-3.89063 0.5,-1.46875 1.46875,-2.26562 0.98438,-0.79688 2.46875,-0.79688 1.09375,0 1.92188,0.4375 0.82812,0.4375 1.35937,1.28125 0.54688,0.82813 0.84375,2.01563 0.3125,1.1875 0.3125,3.21875 0,2.39062 -0.5,3.85937 -0.48437,1.46875 -1.46875,2.28125 -0.96875,0.79688 -2.46875,0.79688 -1.96875,0 -3.07812,-1.40625 -1.35938,-1.70313 -1.35938,-5.53125 z m 1.71875,0 q 0,3.34375 0.78125,4.45312 0.79688,1.10938 1.9375,1.10938 1.15625,0 1.9375,-1.10938 0.78125,-1.125 0.78125,-4.45312 0,-3.35938 -0.78125,-4.46875 -0.78125,-1.10938 -1.95312,-1.10938 -1.15625,0 -1.82813,0.98438 -0.875,1.23437 -0.875,4.59375 z m 9.5632,6.70312 0,-1.90625 1.90625,0 0,1.90625 q 0,1.04688 -0.375,1.6875 -0.375,0.65625 -1.17187,1 l -0.46875,-0.71875 q 0.53125,-0.21875 0.78125,-0.67187 0.25,-0.45313 0.28125,-1.29688 l -0.95313,0 z m 4.27707,-3.5625 1.76563,-0.15625 q 0.1875,1.28125 0.89062,1.9375 0.71875,0.64063 1.71875,0.64063 1.20313,0 2.03125,-0.90625 0.84375,-0.90625 0.84375,-2.42188 0,-1.42187 -0.8125,-2.25 -0.79687,-0.82812 -2.09375,-0.82812 -0.79687,0 -1.45312,0.375 -0.64063,0.35937 -1.01563,0.95312 l -1.57812,-0.20312 1.32812,-7 6.76563,0 0,1.60937 -5.4375,0 -0.73438,3.64063 q 1.23438,-0.84375 2.57813,-0.84375 1.78125,0 3,1.23437 1.23437,1.23438 1.23437,3.17188 0,1.84375 -1.07812,3.1875 -1.3125,1.65625 -3.57813,1.65625 -1.85937,0 -3.03125,-1.03125 -1.17187,-1.04688 -1.34375,-2.76563 z m 10.39133,-0.0312 1.67187,-0.21875 q 0.28125,1.42188 0.96875,2.04688 0.70313,0.625 1.6875,0.625 1.1875,0 2,-0.8125 0.8125,-0.82813 0.8125,-2.03125 0,-1.14063 -0.76562,-1.89063 -0.75,-0.75 -1.90625,-0.75 -0.46875,0 -1.17188,0.1875 l 0.1875,-1.46875 q 0.15625,0.0156 0.26563,0.0156 1.0625,0 1.90625,-0.54688 0.85937,-0.5625 0.85937,-1.71875 0,-0.92187 -0.625,-1.51562 -0.60937,-0.60938 -1.59375,-0.60938 -0.96875,0 -1.625,0.60938 -0.64062,0.60937 -0.82812,1.84375 l -1.67188,-0.29688 q 0.29688,-1.6875 1.375,-2.60937 1.09375,-0.92188 2.71875,-0.92188 1.10938,0 2.04688,0.48438 0.9375,0.46875 1.42187,1.29687 0.5,0.82813 0.5,1.75 0,0.89063 -0.46875,1.60938 -0.46875,0.71875 -1.40625,1.15625 1.21875,0.26562 1.875,1.15625 0.67188,0.875 0.67188,2.1875 0,1.78125 -1.29688,3.01562 -1.29687,1.23438 -3.28125,1.23438 -1.79687,0 -2.98437,-1.0625 -1.17188,-1.0625 -1.34375,-2.76563 z"
       id="path86"
       inkscape:connector-curvature="0"
       style="fill:#000000;fill-rule:nonzero" />
    <path
       d="m 632.3648,149.59055 62.86615,0 0,40.53545 -62.86615,0 z"
       id="path88"
       inkscape:connector-curvature="0"
       style="fill:#000000;fill-opacity:0;fill-rule:nonzero" />
    <path
       d="m 642.14606,169.80742 q 0,-2.42188 0.5,-3.89063 0.5,-1.46875 1.46875,-2.26562 0.98438,-0.79688 2.46875,-0.79688 1.09375,0 1.92188,0.4375 0.82812,0.4375 1.35937,1.28125 0.54688,0.82813 0.84375,2.01563 0.3125,1.1875 0.3125,3.21875 0,2.39062 -0.5,3.85937 -0.48437,1.46875 -1.46875,2.28125 -0.96875,0.79688 -2.46875,0.79688 -1.96875,0 -3.07812,-1.40625 -1.35938,-1.70313 -1.35938,-5.53125 z m 1.71875,0 q 0,3.34375 0.78125,4.45312 0.79688,1.10938 1.9375,1.10938 1.15625,0 1.9375,-1.10938 0.78125,-1.125 0.78125,-4.45312 0,-3.35938 -0.78125,-4.46875 -0.78125,-1.10938 -1.95312,-1.10938 -1.15625,0 -1.82813,0.98438 -0.875,1.23437 -0.875,4.59375 z m 9.56323,6.70312 0,-1.90625 1.90625,0 0,1.90625 q 0,1.04688 -0.375,1.6875 -0.375,0.65625 -1.17187,1 l -0.46875,-0.71875 q 0.53125,-0.21875 0.78125,-0.67187 0.25,-0.45313 0.28125,-1.29688 l -0.95313,0 z m 4.40204,-11.8125 0,-1.60937 8.79688,0 0,1.29687 q -1.29688,1.375 -2.57813,3.67188 -1.26562,2.29687 -1.96875,4.71875 -0.5,1.70312 -0.64062,3.73437 l -1.71875,0 q 0.0312,-1.60937 0.625,-3.875 0.60937,-2.28125 1.73437,-4.39062 1.14063,-2.10938 2.40625,-3.54688 l -6.65625,0 z m 10.25073,5.10938 q 0,-2.42188 0.5,-3.89063 0.5,-1.46875 1.46875,-2.26562 0.98438,-0.79688 2.46875,-0.79688 1.09375,0 1.92188,0.4375 0.82812,0.4375 1.35937,1.28125 0.54688,0.82813 0.84375,2.01563 0.3125,1.1875 0.3125,3.21875 0,2.39062 -0.5,3.85937 -0.48437,1.46875 -1.46875,2.28125 -0.96875,0.79688 -2.46875,0.79688 -1.96875,0 -3.07812,-1.40625 -1.35938,-1.70313 -1.35938,-5.53125 z m 1.71875,0 q 0,3.34375 0.78125,4.45312 0.79688,1.10938 1.9375,1.10938 1.15625,0 1.9375,-1.10938 0.78125,-1.125 0.78125,-4.45312 0,-3.35938 -0.78125,-4.46875 -0.78125,-1.10938 -1.95312,-1.10938 -1.15625,0 -1.82813,0.98438 -0.875,1.23437 -0.875,4.59375 z"
       id="path90"
       inkscape:connector-curvature="0"
       style="fill:#000000;fill-rule:nonzero" />
    <path
       d="m 576.83203,262.51443 62.86615,0 0,40.53543 -62.86615,0 z"
       id="path92"
       inkscape:connector-curvature="0"
       style="fill:#000000;fill-opacity:0;fill-rule:nonzero" />
    <path
       d="m 592.91016,289.43445 -1.67187,0 0,-10.64062 q -0.59375,0.57812 -1.57813,1.15625 -0.98437,0.5625 -1.76562,0.85937 l 0,-1.625 q 1.40625,-0.65625 2.45312,-1.59375 1.04688,-0.9375 1.48438,-1.8125 l 1.07812,0 0,13.65625 z m 4.98511,0 0,-1.90625 1.90625,0 0,1.90625 q 0,1.04688 -0.375,1.6875 -0.375,0.65625 -1.17188,1 l -0.46875,-0.71875 q 0.53125,-0.21875 0.78125,-0.67187 0.25,-0.45313 0.28125,-1.29688 l -0.95312,0 z m 12.94891,-10.26562 -1.65625,0.125 q -0.21875,-0.98438 -0.64062,-1.42188 -0.67188,-0.71875 -1.65625,-0.71875 -0.8125,0 -1.40625,0.4375 -0.79688,0.57813 -1.25,1.6875 -0.45313,1.09375 -0.46875,3.14063 0.60937,-0.92188 1.46875,-1.35938 0.875,-0.45312 1.82812,-0.45312 1.67188,0 2.84375,1.23437 1.17188,1.23438 1.17188,3.17188 0,1.28125 -0.54688,2.39062 -0.54687,1.09375 -1.51562,1.6875 -0.96875,0.57813 -2.1875,0.57813 -2.09375,0 -3.40625,-1.53125 -1.3125,-1.54688 -1.3125,-5.0625 0,-3.95313 1.45312,-5.73438 1.26563,-1.5625 3.42188,-1.5625 1.60937,0 2.625,0.90625 1.03125,0.89063 1.23437,2.48438 z m -6.8125,5.85937 q 0,0.85938 0.35938,1.65625 0.375,0.78125 1.03125,1.20313 0.65625,0.40625 1.375,0.40625 1.0625,0 1.8125,-0.84375 0.76562,-0.85938 0.76562,-2.32813 0,-1.40625 -0.75,-2.21875 -0.75,-0.8125 -1.89062,-0.8125 -1.125,0 -1.92188,0.8125 -0.78125,0.8125 -0.78125,2.125 z m 14.81323,4.40625 -1.67187,0 0,-10.64062 q -0.59375,0.57812 -1.57813,1.15625 -0.98437,0.5625 -1.76562,0.85937 l 0,-1.625 q 1.40625,-0.65625 2.45312,-1.59375 1.04688,-0.9375 1.48438,-1.8125 l 1.07812,0 0,13.65625 z"
       id="path94"
       inkscape:connector-curvature="0"
       style="fill:#000000;fill-rule:nonzero" />
  </g>
</svg>
