<?xml version="1.0" encoding="UTF-8" standalone="no"?>
<svg
   xmlns:dc="http://purl.org/dc/elements/1.1/"
   xmlns:cc="http://creativecommons.org/ns#"
   xmlns:rdf="http://www.w3.org/1999/02/22-rdf-syntax-ns#"
   xmlns:svg="http://www.w3.org/2000/svg"
   xmlns="http://www.w3.org/2000/svg"
   xmlns:sodipodi="http://sodipodi.sourceforge.net/DTD/sodipodi-0.dtd"
   xmlns:inkscape="http://www.inkscape.org/namespaces/inkscape"
   version="1.1"
   viewBox="0 0 530 360"
   stroke-miterlimit="10"
   id="svg2"
   inkscape:version="0.48.5 r10040"
   width="100%"
   height="100%"
   sodipodi:docname="Presentación final.svg"
   style="fill:none;stroke:none">
  <metadata
     id="metadata100">
    <rdf:RDF>
      <cc:Work
         rdf:about="">
        <dc:format>image/svg+xml</dc:format>
        <dc:type
           rdf:resource="http://purl.org/dc/dcmitype/StillImage" />
        <dc:title></dc:title>
      </cc:Work>
    </rdf:RDF>
  </metadata>
  <defs
     id="defs98" />
  <sodipodi:namedview
     pagecolor="#ffffff"
     bordercolor="#666666"
     borderopacity="1"
     objecttolerance="10"
     gridtolerance="10"
     guidetolerance="10"
     inkscape:pageopacity="0"
     inkscape:pageshadow="2"
     inkscape:window-width="1280"
     inkscape:window-height="644"
     id="namedview96"
     showgrid="false"
     inkscape:zoom="0.575"
     inkscape:cx="292.67936"
     inkscape:cy="240.39011"
     inkscape:window-x="0"
     inkscape:window-y="25"
     inkscape:window-maximized="1"
     inkscape:current-layer="svg2" />
  <clipPath
     id="g313bd04ff_1_150.0">
    <path
       d="M 0,0 960,0 960,540 0,540 0,0 z"
       clip-rule="nonzero"
       id="path5"
       inkscape:connector-curvature="0" />
  </clipPath>
  <g
     clip-path="url(#g313bd04ff_1_150.0)"
     id="g7"
     transform="translate(-227.04574,-89.386034)">
    <path
       d="m 0,0 960,0 0,540 -960,0 z"
       id="path9"
       inkscape:connector-curvature="0"
       style="fill:#000000;fill-opacity:0;fill-rule:nonzero" />
    <g
       transform="scale(1.2,1.2)"
       id="g11">
      <clipPath
         id="g313bd04ff_1_150.1">
        <path
           d="m 0,0 800,0 0,450 -800,0 z"
           clip-rule="nonzero"
           id="path14"
           inkscape:connector-curvature="0" />
      </clipPath>
    </g>
    <path
       d="m 236.41208,164.85039 0,0 c 0,-19.44737 15.92032,-35.21258 35.55905,-35.21258 l 0,0 c 9.43085,0 18.47543,3.70988 25.14404,10.31352 6.66861,6.60363 10.41501,15.5601 10.41501,24.89906 l 0,0 c 0,19.44739 -15.92032,35.2126 -35.55905,35.2126 l 0,0 c -19.63873,0 -35.55905,-15.76521 -35.55905,-35.2126 z"
       id="path18"
       inkscape:connector-curvature="0"
       style="fill:#ffffff;fill-rule:nonzero" />
    <path
       d="m 236.41208,164.85039 0,0 c 0,-19.44737 15.92032,-35.21258 35.55905,-35.21258 l 0,0 c 9.43085,0 18.47543,3.70988 25.14404,10.31352 6.66861,6.60363 10.41501,15.5601 10.41501,24.89906 l 0,0 c 0,19.44739 -15.92032,35.2126 -35.55905,35.2126 l 0,0 c -19.63873,0 -35.55905,-15.76521 -35.55905,-35.2126 z"
       id="path20"
       inkscape:connector-curvature="0"
       style="stroke:#666666;stroke-width:2;stroke-linecap:butt;stroke-linejoin:round" />
    <path
       d="m 263.643,176.57039 0,-22.90625 8.59375,0 q 2.625,0 4.20312,0.70312 1.59375,0.6875 2.48438,2.14063 0.90625,1.4375 0.90625,3.01562 0,1.46875 -0.79688,2.76563 -0.79687,1.29687 -2.40625,2.09375 2.07813,0.60937 3.1875,2.07812 1.125,1.46875 1.125,3.46875 0,1.60938 -0.6875,3 -0.67187,1.375 -1.67187,2.125 -1,0.75 -2.51563,1.14063 -1.5,0.375 -3.6875,0.375 l -8.73437,0 z m 3.03125,-13.28125 4.95312,0 q 2.01563,0 2.89063,-0.26563 1.15625,-0.34375 1.73437,-1.14062 0.59375,-0.79688 0.59375,-2 0,-1.14063 -0.54687,-2 -0.54688,-0.875 -1.5625,-1.1875 -1.01563,-0.32813 -3.48438,-0.32813 l -4.57812,0 0,6.92188 z m 0,10.57812 5.70312,0 q 1.46875,0 2.0625,-0.10937 1.04688,-0.1875 1.75,-0.625 0.70313,-0.4375 1.15625,-1.26563 0.45313,-0.84375 0.45313,-1.9375 0,-1.28125 -0.65625,-2.21875 -0.65625,-0.95312 -1.82813,-1.32812 -1.15625,-0.39063 -3.34375,-0.39063 l -5.29687,0 0,7.875 z"
       id="path22"
       inkscape:connector-curvature="0"
       style="fill:#000000;fill-rule:nonzero" />
    <path
       d="m 555.9029,406.6063 0,0 c 0,-19.44739 15.92035,-35.21259 35.55902,-35.21259 l 0,0 c 9.43085,0 18.47546,3.70987 25.1441,10.31354 6.66858,6.60364 10.41498,15.56009 10.41498,24.89905 l 0,0 c 0,19.44739 -15.92035,35.21262 -35.55908,35.21262 l 0,0 c -19.63867,0 -35.55902,-15.76523 -35.55902,-35.21262 z"
       id="path24"
       inkscape:connector-curvature="0"
       style="fill:#ffffff;fill-rule:nonzero" />
    <path
       d="m 555.9029,406.6063 0,0 c 0,-19.44739 15.92035,-35.21259 35.55902,-35.21259 l 0,0 c 9.43085,0 18.47546,3.70987 25.1441,10.31354 6.66858,6.60364 10.41498,15.56009 10.41498,24.89905 l 0,0 c 0,19.44739 -15.92035,35.21262 -35.55908,35.21262 l 0,0 c -19.63867,0 -35.55902,-15.76523 -35.55902,-35.21262 z"
       id="path26"
       inkscape:connector-curvature="0"
       style="stroke:#666666;stroke-width:2;stroke-linecap:butt;stroke-linejoin:round" />
    <path
       d="m 580.74316,418.3263 8.79687,-22.90625 3.26563,0 9.375,22.90625 -3.45313,0 -2.67187,-6.9375 -9.57813,0 -2.51562,6.9375 -3.21875,0 z m 6.60937,-9.40625 7.76563,0 -2.39063,-6.34375 q -1.09375,-2.89063 -1.625,-4.75 -0.4375,2.20312 -1.23437,4.375 l -2.51563,6.71875 z"
       id="path28"
       inkscape:connector-curvature="0"
       style="fill:#000000;fill-rule:nonzero" />
    <path
       d="m 680.3438,258.04462 0,0 c 0,-19.44737 15.92035,-35.2126 35.55908,-35.2126 l 0,0 c 9.43085,0 18.4754,3.7099 25.14404,10.31354 6.66864,6.60364 10.41498,15.5601 10.41498,24.89906 l 0,0 c 0,19.44739 -15.92029,35.21262 -35.55902,35.21262 l 0,0 c -19.63873,0 -35.55908,-15.76523 -35.55908,-35.21262 z"
       id="path30"
       inkscape:connector-curvature="0"
       style="fill:#ffffff;fill-rule:nonzero" />
    <path
       d="m 680.3438,258.04462 0,0 c 0,-19.44737 15.92035,-35.2126 35.55908,-35.2126 l 0,0 c 9.43085,0 18.4754,3.7099 25.14404,10.31354 6.66864,6.60364 10.41498,15.5601 10.41498,24.89906 l 0,0 c 0,19.44739 -15.92029,35.21262 -35.55902,35.21262 l 0,0 c -19.63873,0 -35.55908,-15.76523 -35.55908,-35.21262 z"
       id="path32"
       inkscape:connector-curvature="0"
       style="stroke:#666666;stroke-width:2;stroke-linecap:butt;stroke-linejoin:round" />
    <path
       d="m 707.76227,269.76462 0,-22.90625 16.5625,0 0,2.70312 -13.53125,0 0,7.01563 12.67187,0 0,2.6875 -12.67187,0 0,7.79687 14.0625,0 0,2.70313 -17.09375,0 z"
       id="path34"
       inkscape:connector-curvature="0"
       style="fill:#000000;fill-rule:nonzero" />
    <path
       d="m 286.24146,356.64566 0,0 c 0,-19.44736 15.92035,-35.21258 35.55908,-35.21258 l 0,0 c 9.43085,0 18.47544,3.70986 25.14405,10.31353 6.6686,6.60364 10.415,15.56009 10.415,24.89905 l 0,0 c 0,19.44739 -15.92034,35.21262 -35.55905,35.21262 l 0,0 c -19.63873,0 -35.55908,-15.76523 -35.55908,-35.21262 z"
       id="path36"
       inkscape:connector-curvature="0"
       style="fill:#ffffff;fill-rule:nonzero" />
    <path
       d="m 286.24146,356.64566 0,0 c 0,-19.44736 15.92035,-35.21258 35.55908,-35.21258 l 0,0 c 9.43085,0 18.47544,3.70986 25.14405,10.31353 6.6686,6.60364 10.415,15.56009 10.415,24.89905 l 0,0 c 0,19.44739 -15.92034,35.21262 -35.55905,35.21262 l 0,0 c -19.63873,0 -35.55908,-15.76523 -35.55908,-35.21262 z"
       id="path38"
       inkscape:connector-curvature="0"
       style="stroke:#666666;stroke-width:2;stroke-linecap:butt;stroke-linejoin:round" />
    <path
       d="m 329.05835,360.3344 3.03125,0.76563 q -0.95312,3.73437 -3.4375,5.70312 -2.46875,1.95313 -6.04687,1.95313 -3.70313,0 -6.03125,-1.5 -2.3125,-1.51563 -3.53125,-4.375 -1.20313,-2.85938 -1.20313,-6.14063 0,-3.57812 1.35938,-6.23437 1.375,-2.67188 3.89062,-4.04688 2.53125,-1.39062 5.5625,-1.39062 3.4375,0 5.78125,1.75 2.34375,1.75 3.26563,4.92187 l -2.98438,0.70313 q -0.79687,-2.5 -2.3125,-3.64063 -1.51562,-1.14062 -3.8125,-1.14062 -2.64062,0 -4.42187,1.26562 -1.76563,1.26563 -2.48438,3.40625 -0.71875,2.125 -0.71875,4.39063 0,2.92187 0.84375,5.10937 0.85938,2.17188 2.65625,3.25 1.79688,1.07813 3.89063,1.07813 2.54687,0 4.3125,-1.46875 1.76562,-1.46875 2.39062,-4.35938 z"
       id="path40"
       inkscape:connector-curvature="0"
       style="fill:#000000;fill-rule:nonzero" />
    <path
       d="m 497.93964,133.3622 0,0 c 0,-19.44737 15.92035,-35.212593 35.55902,-35.212593 l 0,0 c 9.43085,0 18.47546,3.709893 25.1441,10.313533 6.66858,6.60364 10.41498,15.56011 10.41498,24.89906 l 0,0 c 0,19.44739 -15.92035,35.2126 -35.55908,35.2126 l 0,0 c -19.63867,0 -35.55902,-15.76521 -35.55902,-35.2126 z"
       id="path42"
       inkscape:connector-curvature="0"
       style="fill:#ffffff;fill-rule:nonzero" />
    <path
       d="m 497.93964,133.3622 0,0 c 0,-19.44737 15.92035,-35.212593 35.55902,-35.212593 l 0,0 c 9.43085,0 18.47546,3.709893 25.1441,10.313533 6.66858,6.60364 10.41498,15.56011 10.41498,24.89906 l 0,0 c 0,19.44739 -15.92035,35.2126 -35.55908,35.2126 l 0,0 c -19.63867,0 -35.55902,-15.76521 -35.55902,-35.2126 z"
       id="path44"
       inkscape:connector-curvature="0"
       style="stroke:#666666;stroke-width:2;stroke-linecap:butt;stroke-linejoin:round" />
    <path
       d="m 524.4127,145.0822 0,-22.90625 7.89062,0 q 2.67188,0 4.07813,0.32813 1.96875,0.45312 3.35937,1.64062 1.81257,1.53125 2.70319,3.92187 0.90625,2.375 0.90625,5.4375 0,2.60938 -0.60937,4.625 -0.60938,2.01563 -1.5625,3.34375 -0.95319,1.3125 -2.09382,2.07813 -1.125,0.75 -2.73437,1.14062 -1.59375,0.39063 -3.67188,0.39063 l -8.26562,0 z m 3.03125,-2.70313 4.89062,0 q 2.26563,0 3.54688,-0.42187 1.29687,-0.42188 2.0625,-1.1875 1.07812,-1.07813 1.67187,-2.89063 0.60938,-1.82812 0.60938,-4.42187 0,-3.59375 -1.1875,-5.51562 -1.17188,-1.9375 -2.85938,-2.59375 -1.21875,-0.46875 -3.92187,-0.46875 l -4.8125,0 0,17.49999 z"
       id="path46"
       inkscape:connector-curvature="0"
       style="fill:#000000;fill-rule:nonzero" />
    <path
       d="m 271.97375,200.04724 49.82678,121.38583"
       id="path48"
       inkscape:connector-curvature="0"
       style="fill:#000000;fill-opacity:0;fill-rule:nonzero" />
    <path
       d="m 271.97375,200.04724 49.82678,121.38583"
       id="path50"
       inkscape:connector-curvature="0"
       style="stroke:#666666;stroke-width:2;stroke-linecap:butt;stroke-linejoin:round" />
    <path
       d="M 307.51443,164.85826 497.93963,133.3622"
       id="path52"
       inkscape:connector-curvature="0"
       style="fill:#000000;fill-opacity:0;fill-rule:nonzero" />
    <path
       d="M 307.51443,164.85826 497.93963,133.3622"
       id="path54"
       inkscape:connector-curvature="0"
       style="stroke:#666666;stroke-width:2;stroke-linecap:butt;stroke-linejoin:round" />
    <path
       d="M 508.3619,158.26628 346.94457,331.74661"
       id="path56"
       inkscape:connector-curvature="0"
       style="fill:#000000;fill-opacity:0;fill-rule:nonzero" />
    <path
       d="M 508.3619,158.26628 346.94457,331.74661"
       id="path58"
       inkscape:connector-curvature="0"
       style="stroke:#666666;stroke-width:2;stroke-linecap:butt;stroke-linejoin:round" />
    <path
       d="m 558.6329,158.24791 132.12598,74.89764"
       id="path60"
       inkscape:connector-curvature="0"
       style="fill:#000000;fill-opacity:0;fill-rule:nonzero" />
    <path
       d="m 558.6329,158.24791 132.12598,74.89764"
       id="path62"
       inkscape:connector-curvature="0"
       style="stroke:#666666;stroke-width:2;stroke-linecap:butt;stroke-linejoin:round" />
    <path
       d="m 533.50916,168.55905 57.95276,202.83466"
       id="path64"
       inkscape:connector-curvature="0"
       style="fill:#000000;fill-opacity:0;fill-rule:nonzero" />
    <path
       d="m 533.50916,168.55905 57.95276,202.83466"
       id="path66"
       inkscape:connector-curvature="0"
       style="stroke:#666666;stroke-width:2;stroke-linecap:butt;stroke-linejoin:round" />
    <path
       d="m 357.3596,356.64566 198.55118,49.95276"
       id="path68"
       inkscape:connector-curvature="0"
       style="fill:#000000;fill-opacity:0;fill-rule:nonzero" />
    <path
       d="m 357.3596,356.64566 198.55118,49.95276"
       id="path70"
       inkscape:connector-curvature="0"
       style="stroke:#666666;stroke-width:2;stroke-linecap:butt;stroke-linejoin:round" />
    <path
       d="m 338.12598,113.09974 62.86615,0 0,40.53544 -62.86615,0 z"
       id="path72"
       inkscape:connector-curvature="0"
       style="fill:#000000;fill-opacity:0;fill-rule:nonzero" />
    <path
       d="m 354.2041,140.01973 -1.67188,0 0,-10.64063 q -0.59375,0.57813 -1.57812,1.15625 -0.98438,0.5625 -1.76563,0.85938 l 0,-1.625 q 1.40625,-0.65625 2.45313,-1.59375 1.04687,-0.93749 1.48437,-1.81249 l 1.07813,0 0,13.65624 z m 4.98511,0 0,-1.90625 1.90625,0 0,1.90625 q 0,1.04687 -0.375,1.6875 -0.375,0.65625 -1.17188,1 l -0.46875,-0.71875 q 0.53125,-0.21875 0.78125,-0.67188 0.25,-0.45312 0.28125,-1.29687 l -0.95312,0 z m 13.05829,-1.60938 0,1.60938 -8.98438,0 q -0.0156,-0.60938 0.1875,-1.15625 0.34375,-0.92188 1.09375,-1.8125 0.76563,-0.89063 2.1875,-2.0625 2.21875,-1.8125 3,-2.875 0.78125,-1.0625 0.78125,-2.01563 0,-0.98437 -0.71875,-1.67187 -0.70312,-0.68749 -1.84375,-0.68749 -1.20312,0 -1.9375,0.73436 -0.71875,0.71875 -0.71875,2 l -1.71875,-0.17187 q 0.17188,-1.92188 1.32813,-2.92187 1.15625,-1.01562 3.09375,-1.01562 1.95312,0 3.09375,1.09375 1.14062,1.07811 1.14062,2.68749 0,0.8125 -0.34375,1.60937 -0.32812,0.78125 -1.10937,1.65625 -0.76563,0.85938 -2.5625,2.39063 -1.5,1.26562 -1.9375,1.71875 -0.42188,0.4375 -0.70313,0.89062 l 6.67188,0 z m 1.6101,-1.98437 1.67188,-0.21875 q 0.28125,1.42187 0.96875,2.04687 0.70312,0.625 1.6875,0.625 1.1875,0 2,-0.8125 0.8125,-0.82812 0.8125,-2.03125 0,-1.14062 -0.76563,-1.89062 -0.75,-0.75 -1.90625,-0.75 -0.46875,0 -1.17187,0.1875 l 0.1875,-1.46875 q 0.15625,0.0156 0.26562,0.0156 1.0625,0 1.90625,-0.54687 0.85938,-0.5625 0.85938,-1.71875 0,-0.92188 -0.625,-1.51563 -0.60938,-0.60936 -1.59375,-0.60936 -0.96875,0 -1.625,0.60936 -0.64063,0.60938 -0.82813,1.84375 l -1.67187,-0.29687 q 0.29687,-1.6875 1.375,-2.60937 1.09375,-0.92187 2.71875,-0.92187 1.10937,0 2.04687,0.48437 0.9375,0.46875 1.42188,1.29687 0.5,0.82812 0.5,1.75 0,0.89062 -0.46875,1.60937 -0.46875,0.71875 -1.40625,1.15625 1.21875,0.26563 1.875,1.15625 0.67187,0.875 0.67187,2.1875 0,1.78125 -1.29687,3.01563 -1.29688,1.23437 -3.28125,1.23437 -1.79688,0 -2.98438,-1.0625 -1.17187,-1.0625 -1.34375,-2.76562 z"
       id="path74"
       inkscape:connector-curvature="0"
       style="fill:#000000;fill-rule:nonzero" />
    <path
       d="m 238.08398,249.73228 62.86615,0 0,40.53545 -62.86615,0 z"
       id="path76"
       inkscape:connector-curvature="0"
       style="fill:#000000;fill-opacity:0;fill-rule:nonzero" />
    <path
       d="m 247.86523,269.94916 q 0,-2.42188 0.5,-3.89063 0.5,-1.46875 1.46875,-2.26562 0.98437,-0.79688 2.46875,-0.79688 1.09375,0 1.92187,0.4375 0.82813,0.4375 1.35938,1.28125 0.54687,0.82813 0.84375,2.01563 0.3125,1.1875 0.3125,3.21875 0,2.39062 -0.5,3.85937 -0.48438,1.46875 -1.46875,2.28125 -0.96875,0.79688 -2.46875,0.79688 -1.96875,0 -3.07813,-1.40625 -1.35937,-1.70313 -1.35937,-5.53125 z m 1.71875,0 q 0,3.34375 0.78125,4.45312 0.79687,1.10938 1.9375,1.10938 1.15625,0 1.9375,-1.10938 0.78125,-1.125 0.78125,-4.45312 0,-3.35938 -0.78125,-4.46875 -0.78125,-1.10938 -1.95313,-1.10938 -1.15625,0 -1.82812,0.98438 -0.875,1.23437 -0.875,4.59375 z m 9.56323,6.70312 0,-1.90625 1.90625,0 0,1.90625 q 0,1.04688 -0.375,1.6875 -0.375,0.65625 -1.17187,1 l -0.46875,-0.71875 q 0.53125,-0.21875 0.78125,-0.67187 0.25,-0.45313 0.28125,-1.29688 l -0.95313,0 z m 13.05829,-1.60937 0,1.60937 -8.98437,0 q -0.0156,-0.60937 0.1875,-1.15625 0.34375,-0.92187 1.09375,-1.8125 0.76562,-0.89062 2.1875,-2.0625 2.21875,-1.8125 3,-2.875 0.78125,-1.0625 0.78125,-2.01562 0,-0.98438 -0.71875,-1.67188 -0.70313,-0.6875 -1.84375,-0.6875 -1.20313,0 -1.9375,0.73438 -0.71875,0.71875 -0.71875,2 l -1.71875,-0.17188 q 0.17187,-1.92187 1.32812,-2.92187 1.15625,-1.01563 3.09375,-1.01563 1.95313,0 3.09375,1.09375 1.14063,1.07813 1.14063,2.6875 0,0.8125 -0.34375,1.60938 -0.32813,0.78125 -1.10938,1.65625 -0.76562,0.85937 -2.5625,2.39062 -1.5,1.26563 -1.9375,1.71875 -0.42187,0.4375 -0.70312,0.89063 l 6.67187,0 z m 1.71948,-10.20313 0,-1.60937 8.79688,0 0,1.29687 q -1.29688,1.375 -2.57813,3.67188 -1.26562,2.29687 -1.96875,4.71875 -0.5,1.70312 -0.64062,3.73437 l -1.71875,0 q 0.0312,-1.60937 0.625,-3.875 0.60937,-2.28125 1.73437,-4.39062 1.14063,-2.10938 2.40625,-3.54688 l -6.65625,0 z"
       id="path78"
       inkscape:connector-curvature="0"
       style="fill:#000000;fill-rule:nonzero" />
    <path
       d="m 375.08923,209.19685 62.86615,0 0,40.53543 -62.86615,0 z"
       id="path80"
       inkscape:connector-curvature="0"
       style="fill:#000000;fill-opacity:0;fill-rule:nonzero" />
    <path
       d="m 391.16736,236.11685 -1.67188,0 0,-10.64063 q -0.59375,0.57813 -1.57812,1.15625 -0.98438,0.5625 -1.76563,0.85938 l 0,-1.625 q 1.40625,-0.65625 2.45313,-1.59375 1.04687,-0.9375 1.48437,-1.8125 l 1.07813,0 0,13.65625 z m 4.98511,0 0,-1.90625 1.90625,0 0,1.90625 q 0,1.04687 -0.375,1.6875 -0.375,0.65625 -1.17188,1 l -0.46875,-0.71875 q 0.53125,-0.21875 0.78125,-0.67188 0.25,-0.45312 0.28125,-1.29687 l -0.95312,0 z m 4.27704,-6.70313 q 0,-2.42187 0.5,-3.89062 0.5,-1.46875 1.46875,-2.26563 0.98437,-0.79687 2.46875,-0.79687 1.09375,0 1.92187,0.4375 0.82813,0.4375 1.35938,1.28125 0.54687,0.82812 0.84375,2.01562 0.3125,1.1875 0.3125,3.21875 0,2.39063 -0.5,3.85938 -0.48438,1.46875 -1.46875,2.28125 -0.96875,0.79687 -2.46875,0.79687 -1.96875,0 -3.07813,-1.40625 -1.35937,-1.70312 -1.35937,-5.53125 z m 1.71875,0 q 0,3.34375 0.78125,4.45313 0.79687,1.10937 1.9375,1.10937 1.15625,0 1.9375,-1.10937 0.78125,-1.125 0.78125,-4.45313 0,-3.35937 -0.78125,-4.46875 -0.78125,-1.10937 -1.95313,-1.10937 -1.15625,0 -1.82812,0.98437 -0.875,1.23438 -0.875,4.59375 z m 14.01635,6.70313 0,-3.25 -5.90625,0 0,-1.53125 6.21875,-8.8125 1.35938,0 0,8.8125 1.84375,0 0,1.53125 -1.84375,0 0,3.25 -1.67188,0 z m 0,-4.78125 0,-6.14063 -4.25,6.14063 4.25,0 z"
       id="path82"
       inkscape:connector-curvature="0"
       style="fill:#000000;fill-rule:nonzero" />
    <path
       d="m 411.7638,380.24146 62.86612,0 0,40.53546 -62.86612,0 z"
       id="path84"
       inkscape:connector-curvature="0"
       style="fill:#000000;fill-opacity:0;fill-rule:nonzero" />
    <path
       d="m 421.54504,400.45834 q 0,-2.42187 0.5,-3.89062 0.5,-1.46875 1.46875,-2.26563 0.98437,-0.79687 2.46875,-0.79687 1.09375,0 1.92187,0.4375 0.82813,0.4375 1.35938,1.28125 0.54687,0.82812 0.84375,2.01562 0.3125,1.1875 0.3125,3.21875 0,2.39063 -0.5,3.85938 -0.48438,1.46875 -1.46875,2.28125 -0.96875,0.79687 -2.46875,0.79687 -1.96875,0 -3.07813,-1.40625 -1.35937,-1.70312 -1.35937,-5.53125 z m 1.71875,0 q 0,3.34375 0.78125,4.45313 0.79687,1.10937 1.9375,1.10937 1.15625,0 1.9375,-1.10937 0.78125,-1.125 0.78125,-4.45313 0,-3.35937 -0.78125,-4.46875 -0.78125,-1.10937 -1.95313,-1.10937 -1.15625,0 -1.82812,0.98437 -0.875,1.23438 -0.875,4.59375 z m 9.5632,6.70313 0,-1.90625 1.90625,0 0,1.90625 q 0,1.04687 -0.375,1.6875 -0.375,0.65625 -1.17187,1 l -0.46875,-0.71875 q 0.53125,-0.21875 0.78125,-0.67188 0.25,-0.45312 0.28125,-1.29687 l -0.95313,0 z m 4.27707,-3.5625 1.76563,-0.15625 q 0.1875,1.28125 0.89062,1.9375 0.71875,0.64062 1.71875,0.64062 1.20313,0 2.03125,-0.90625 0.84375,-0.90625 0.84375,-2.42187 0,-1.42188 -0.8125,-2.25 -0.79687,-0.82813 -2.09375,-0.82813 -0.79687,0 -1.45312,0.375 -0.64063,0.35938 -1.01563,0.95313 l -1.57812,-0.20313 1.32812,-7 6.76563,0 0,1.60938 -5.4375,0 -0.73438,3.64062 q 1.23438,-0.84375 2.57813,-0.84375 1.78125,0 3,1.23438 1.23437,1.23437 1.23437,3.17187 0,1.84375 -1.07812,3.1875 -1.3125,1.65625 -3.57813,1.65625 -1.85937,0 -3.03125,-1.03125 -1.17187,-1.04687 -1.34375,-2.76562 z m 10.39133,-0.0312 1.67187,-0.21875 q 0.28125,1.42187 0.96875,2.04687 0.70313,0.625 1.6875,0.625 1.1875,0 2,-0.8125 0.8125,-0.82812 0.8125,-2.03125 0,-1.14062 -0.76562,-1.89062 -0.75,-0.75 -1.90625,-0.75 -0.46875,0 -1.17188,0.1875 l 0.1875,-1.46875 q 0.15625,0.0156 0.26563,0.0156 1.0625,0 1.90625,-0.54687 0.85937,-0.5625 0.85937,-1.71875 0,-0.92188 -0.625,-1.51563 -0.60937,-0.60937 -1.59375,-0.60937 -0.96875,0 -1.625,0.60937 -0.64062,0.60938 -0.82812,1.84375 l -1.67188,-0.29687 q 0.29688,-1.6875 1.375,-2.60938 1.09375,-0.92187 2.71875,-0.92187 1.10938,0 2.04688,0.48437 0.9375,0.46875 1.42187,1.29688 0.5,0.82812 0.5,1.75 0,0.89062 -0.46875,1.60937 -0.46875,0.71875 -1.40625,1.15625 1.21875,0.26563 1.875,1.15625 0.67188,0.875 0.67188,2.1875 0,1.78125 -1.29688,3.01563 -1.29687,1.23437 -3.28125,1.23437 -1.79687,0 -2.98437,-1.0625 -1.17188,-1.0625 -1.34375,-2.76562 z"
       id="path86"
       inkscape:connector-curvature="0"
       style="fill:#000000;fill-rule:nonzero" />
    <path
       d="m 608.8635,158.26509 62.86615,0 0,40.53543 -62.86615,0 z"
       id="path88"
       inkscape:connector-curvature="0"
       style="fill:#000000;fill-opacity:0;fill-rule:nonzero" />
    <path
       d="m 618.6448,178.48196 q 0,-2.42188 0.5,-3.89063 0.5,-1.46875 1.46875,-2.26562 0.98438,-0.79688 2.46875,-0.79688 1.09375,0 1.92188,0.4375 0.82812,0.4375 1.35937,1.28125 0.54688,0.82813 0.84375,2.01563 0.3125,1.1875 0.3125,3.21875 0,2.39062 -0.5,3.85937 -0.48437,1.46875 -1.46875,2.28125 -0.96875,0.79688 -2.46875,0.79688 -1.96875,0 -3.07812,-1.40625 -1.35938,-1.70313 -1.35938,-5.53125 z m 1.71875,0 q 0,3.34375 0.78125,4.45312 0.79688,1.10938 1.9375,1.10938 1.15625,0 1.9375,-1.10938 0.78125,-1.125 0.78125,-4.45312 0,-3.35938 -0.78125,-4.46875 -0.78125,-1.10938 -1.95312,-1.10938 -1.15625,0 -1.82813,0.98438 -0.875,1.23437 -0.875,4.59375 z m 9.56323,6.70312 0,-1.90625 1.90625,0 0,1.90625 q 0,1.04688 -0.375,1.6875 -0.375,0.65625 -1.17187,1 l -0.46875,-0.71875 q 0.53125,-0.21875 0.78125,-0.67187 0.25,-0.45313 0.28125,-1.29688 l -0.95313,0 z m 4.40204,-11.8125 0,-1.60937 8.79688,0 0,1.29687 q -1.29688,1.375 -2.57813,3.67188 -1.26562,2.29687 -1.96875,4.71875 -0.5,1.70312 -0.64062,3.73437 l -1.71875,0 q 0.0312,-1.60937 0.625,-3.875 0.60937,-2.28125 1.73437,-4.39062 1.14063,-2.10938 2.40625,-3.54688 l -6.65625,0 z m 10.25073,5.10938 q 0,-2.42188 0.5,-3.89063 0.5,-1.46875 1.46875,-2.26562 0.98438,-0.79688 2.46875,-0.79688 1.09375,0 1.92188,0.4375 0.82812,0.4375 1.35937,1.28125 0.54688,0.82813 0.84375,2.01563 0.3125,1.1875 0.3125,3.21875 0,2.39062 -0.5,3.85937 -0.48437,1.46875 -1.46875,2.28125 -0.96875,0.79688 -2.46875,0.79688 -1.96875,0 -3.07812,-1.40625 -1.35938,-1.70313 -1.35938,-5.53125 z m 1.71875,0 q 0,3.34375 0.78125,4.45312 0.79688,1.10938 1.9375,1.10938 1.15625,0 1.9375,-1.10938 0.78125,-1.125 0.78125,-4.45312 0,-3.35938 -0.78125,-4.46875 -0.78125,-1.10938 -1.95312,-1.10938 -1.15625,0 -1.82813,0.98438 -0.875,1.23437 -0.875,4.59375 z"
       id="path90"
       inkscape:connector-curvature="0"
       style="fill:#000000;fill-rule:nonzero" />
    <path
       d="m 568.0289,264.8294 62.86615,0 0,40.53543 -62.86615,0 z"
       id="path92"
       inkscape:connector-curvature="0"
       style="fill:#000000;fill-opacity:0;fill-rule:nonzero" />
    <path
       d="m 584.107,291.7494 -1.67188,0 0,-10.64063 q -0.59375,0.57813 -1.57812,1.15625 -0.98438,0.5625 -1.76563,0.85938 l 0,-1.625 q 1.40625,-0.65625 2.45313,-1.59375 1.04687,-0.9375 1.48437,-1.8125 l 1.07813,0 0,13.65625 z m 4.98511,0 0,-1.90625 1.90625,0 0,1.90625 q 0,1.04687 -0.375,1.6875 -0.375,0.65625 -1.17188,1 l -0.46875,-0.71875 q 0.53125,-0.21875 0.78125,-0.67188 0.25,-0.45312 0.28125,-1.29687 l -0.95312,0 z m 12.94891,-10.26563 -1.65625,0.125 q -0.21875,-0.98437 -0.64062,-1.42187 -0.67188,-0.71875 -1.65625,-0.71875 -0.8125,0 -1.40625,0.4375 -0.79688,0.57812 -1.25,1.6875 -0.45313,1.09375 -0.46875,3.14062 0.60937,-0.92187 1.46875,-1.35937 0.875,-0.45313 1.82812,-0.45313 1.67188,0 2.84375,1.23438 1.17188,1.23437 1.17188,3.17187 0,1.28125 -0.54688,2.39063 -0.54687,1.09375 -1.51562,1.6875 -0.96875,0.57812 -2.1875,0.57812 -2.09375,0 -3.40625,-1.53125 -1.3125,-1.54687 -1.3125,-5.0625 0,-3.95312 1.45312,-5.73437 1.26563,-1.5625 3.42188,-1.5625 1.60937,0 2.625,0.90625 1.03125,0.89062 1.23437,2.48437 z m -6.8125,5.85938 q 0,0.85937 0.35938,1.65625 0.375,0.78125 1.03125,1.20312 0.65625,0.40625 1.375,0.40625 1.0625,0 1.8125,-0.84375 0.76562,-0.85937 0.76562,-2.32812 0,-1.40625 -0.75,-2.21875 -0.75,-0.8125 -1.89062,-0.8125 -1.125,0 -1.92188,0.8125 -0.78125,0.8125 -0.78125,2.125 z m 14.81323,4.40625 -1.67187,0 0,-10.64063 q -0.59375,0.57813 -1.57813,1.15625 -0.98437,0.5625 -1.76562,0.85938 l 0,-1.625 q 1.40625,-0.65625 2.45312,-1.59375 1.04688,-0.9375 1.48438,-1.8125 l 1.07812,0 0,13.65625 z"
       id="path94"
       inkscape:connector-curvature="0"
       style="fill:#000000;fill-rule:nonzero" />
  </g>
</svg>
